<svg width="36" height="36" viewBox="0 0 36 36" fill="none" xmlns="http://www.w3.org/2000/svg">
<circle cx="17.6613" cy="18.2311" r="17.6613" fill="#B45F92"/>
<path d="M24.0196 15.5072V12.4407C24.0196 12.3033 23.9651 12.1716 23.8679 12.0744L21.1493 9.35584C21.0522 9.25868 20.9204 9.2041 20.783 9.2041H10.7227C10.4365 9.2041 10.2046 9.43605 10.2046 9.72217V25.9549C10.2046 26.241 10.4365 26.4729 10.7227 26.4729H23.2512C23.2512 26.4729 24.0196 26.4729 24.0196 25.9549V22.0866" stroke="white" stroke-width="1.29516" stroke-linecap="round" stroke-linejoin="round"/>
<path d="M13.6584 16.1115H20.566M13.6584 12.6577H17.1122M13.6584 19.5652H16.2488" stroke="white" stroke-width="1.29516" stroke-linecap="round" stroke-linejoin="round"/>
<path d="M20.5659 12.1398V9.50937C20.5659 9.34078 20.7026 9.2041 20.8712 9.2041C20.9521 9.2041 21.0298 9.23626 21.0871 9.29351L23.9302 12.1367C23.9876 12.194 24.0197 12.2716 24.0197 12.3526C24.0197 12.5212 23.883 12.6579 23.7144 12.6579H21.084C20.7978 12.6579 20.5659 12.4259 20.5659 12.1398Z" fill="white" stroke="white" stroke-width="1.29516" stroke-linecap="round" stroke-linejoin="round"/>
<path d="M25.0391 16.6045C25.1376 16.6045 25.2352 16.6208 25.3281 16.6523L25.4199 16.6895C25.5391 16.7452 25.6442 16.8268 25.7285 16.9277L25.7461 16.9453C25.819 17.0126 25.8809 17.0904 25.9307 17.1758L25.9766 17.2627C26.0307 17.3812 26.0597 17.5095 26.0645 17.6396C26.0605 17.7698 26.0317 17.8981 25.9775 18.0166C25.9365 18.1065 25.882 18.1894 25.8164 18.2627L25.7471 18.333L25.7402 18.3389L24.9785 19.1016L21.9531 22.1221L21.7412 22.3311L21.7393 22.333C21.6221 22.4518 21.49 22.5547 21.3477 22.6416L19.2939 23.6592L19.21 23.6475L19.1426 23.7109C19.1079 23.7434 19.0621 23.7611 19.0146 23.7617H17.4932C17.4679 23.7617 17.4428 23.7576 17.4199 23.748L17.3584 23.7061C17.3228 23.6704 17.3027 23.6217 17.3027 23.5713C17.3028 23.5462 17.308 23.5218 17.3174 23.499L17.3584 23.4365C17.3941 23.4009 17.4427 23.3809 17.4932 23.3809H19.0176L19.0703 23.2744L20.0146 21.3486C20.1035 21.1945 20.2117 21.0521 20.3359 20.9248L20.3369 20.9258L23.5752 17.7021L24.3369 16.9395L24.3438 16.9336L24.3486 16.9277C24.412 16.8519 24.4873 16.7865 24.5713 16.7354L24.6582 16.6895C24.7774 16.6337 24.9075 16.6045 25.0391 16.6045ZM20.5557 21.2451C20.48 21.3243 20.4123 21.4115 20.3535 21.5039L20.3477 21.5127L20.3438 21.5225L19.8369 22.5625L19.5928 23.0625L20.0918 22.8164L21.1592 22.291L21.1719 22.2842L21.1846 22.2754L21.2871 22.2031L21.3008 22.1934L21.3994 22.1094L21.5566 21.9766L21.4121 21.8301L21.0615 21.4756L20.6904 21.1045L20.5557 21.2451ZM23.5684 18.2207L21.0928 20.6973L20.958 20.8311L21.0918 20.9658L21.3887 21.2676L21.3906 21.2686L21.6875 21.5625L21.8223 21.6953L24.5674 18.9502L23.7031 18.0859L23.5684 18.2207ZM24.998 16.9873C24.8769 17.0077 24.7637 17.0594 24.6709 17.1377L24.5986 17.21L24.1074 17.6943L23.9707 17.8281L24.1055 17.9639L24.7002 18.5625L24.8369 18.7002L24.9717 18.5605L25.3691 18.1494L25.4453 18.0859C25.5687 17.9818 25.6531 17.839 25.6846 17.6807L25.6914 17.6445L25.6855 17.6094C25.6584 17.4605 25.582 17.3263 25.4717 17.2236H25.4727C25.3682 17.0989 25.2228 17.0153 25.0625 16.9873L25.0303 16.9814L24.998 16.9873Z" fill="white" stroke="white" stroke-width="0.380993"/>
</svg>
