<svg width="36" height="36" viewBox="0 0 36 36" fill="none" xmlns="http://www.w3.org/2000/svg">
<circle cx="17.6613" cy="18.2311" r="17.6613" fill="#B45F92"/>
<path d="M10.9893 26.2178V9.7303C10.9893 9.43969 11.2248 9.2041 11.5155 9.2041H21.7337C21.8733 9.2041 22.0071 9.25954 22.1058 9.35822L24.8671 12.1195C24.9657 12.2181 25.0211 12.352 25.0211 12.4915V26.2178C25.0211 26.5084 24.7856 26.744 24.495 26.744H11.5155C11.2248 26.744 10.9893 26.5084 10.9893 26.2178Z" stroke="white" stroke-width="1.31549" stroke-linecap="round" stroke-linejoin="round"/>
<path d="M21.5132 12.1859V9.51416C21.5132 9.34292 21.652 9.2041 21.8233 9.2041C21.9055 9.2041 21.9843 9.23677 22.0425 9.29491L24.9303 12.1828C24.9885 12.2409 25.0212 12.3198 25.0212 12.402C25.0212 12.5733 24.8823 12.7121 24.7111 12.7121H22.0394C21.7487 12.7121 21.5132 12.4765 21.5132 12.1859Z" fill="white" stroke="white" stroke-width="1.31549" stroke-linecap="round" stroke-linejoin="round"/>
<mask id="path-4-inside-1_520_597" fill="white">
<path d="M19.7698 19.5381H12.9054C12.7681 19.5381 12.6652 19.4695 12.5965 19.3322C12.5278 19.1949 12.5622 19.0576 12.6308 18.9546L16.063 14.836C16.1317 14.7673 16.2346 14.6987 16.3376 14.6987H23.202C23.3393 14.6987 23.4423 14.7674 23.5109 14.9047C23.5796 15.0419 23.5452 15.1792 23.4766 15.2822L20.0444 19.4009C19.9758 19.5038 19.8728 19.5381 19.7698 19.5381ZM13.6262 18.8517H19.5982L22.447 15.4195H16.5092L13.6262 18.8517Z"/>
</mask>
<path d="M19.7698 19.5381H12.9054C12.7681 19.5381 12.6652 19.4695 12.5965 19.3322C12.5278 19.1949 12.5622 19.0576 12.6308 18.9546L16.063 14.836C16.1317 14.7673 16.2346 14.6987 16.3376 14.6987H23.202C23.3393 14.6987 23.4423 14.7674 23.5109 14.9047C23.5796 15.0419 23.5452 15.1792 23.4766 15.2822L20.0444 19.4009C19.9758 19.5038 19.8728 19.5381 19.7698 19.5381ZM13.6262 18.8517H19.5982L22.447 15.4195H16.5092L13.6262 18.8517Z" fill="white"/>
<path d="M12.6308 18.9546L11.673 18.1564L11.6303 18.2077L11.5933 18.2632L12.6308 18.9546ZM16.063 14.836L15.1814 13.9544L15.1414 13.9944L15.1052 14.0378L16.063 14.836ZM23.4766 15.2822L24.4344 16.0804L24.4772 16.0292L24.5142 15.9736L23.4766 15.2822ZM20.0444 19.4009L19.0866 18.6026L19.044 18.6538L19.007 18.7091L20.0444 19.4009ZM13.6262 18.8517L12.6714 18.0497L10.9505 20.0985H13.6262V18.8517ZM19.5982 18.8517V20.0985H20.1837L20.5576 19.648L19.5982 18.8517ZM22.447 15.4195L23.4064 16.2158L25.1022 14.1727H22.447V15.4195ZM16.5092 15.4195V14.1727H15.9282L15.5545 14.6175L16.5092 15.4195ZM19.7698 19.5381V18.2913H12.9054V19.5381V20.785H19.7698V19.5381ZM12.9054 19.5381V18.2913C13.055 18.2913 13.2415 18.3323 13.4169 18.4492C13.5844 18.5609 13.672 18.6952 13.7116 18.7745L12.5965 19.3322L11.4814 19.8899C11.5896 20.1064 11.763 20.3437 12.0336 20.5241C12.3119 20.7096 12.6185 20.785 12.9054 20.785V19.5381ZM12.5965 19.3322L13.7116 18.7745C13.7953 18.9417 13.8206 19.1265 13.7981 19.2954C13.7772 19.4521 13.7194 19.5694 13.6684 19.6461L12.6308 18.9546L11.5933 18.2632C11.3562 18.6189 11.1557 19.2387 11.4814 19.8899L12.5965 19.3322ZM12.6308 18.9546L13.5887 19.7528L17.0208 15.6342L16.063 14.836L15.1052 14.0378L11.673 18.1564L12.6308 18.9546ZM16.063 14.836L16.9446 15.7176C16.9113 15.751 16.8605 15.7948 16.7844 15.8363C16.713 15.8752 16.5576 15.9456 16.3376 15.9456V14.6987V13.4519C15.7372 13.4519 15.3311 13.8046 15.1814 13.9544L16.063 14.836ZM16.3376 14.6987V15.9456H23.202V14.6987V13.4519H16.3376V14.6987ZM23.202 14.6987V15.9456C23.0524 15.9456 22.8659 15.9046 22.6905 15.7876C22.523 15.6759 22.4354 15.5416 22.3958 15.4624L23.5109 14.9047L24.626 14.3469C24.5178 14.1304 24.3444 13.8932 24.0738 13.7128C23.7955 13.5272 23.4889 13.4519 23.202 13.4519V14.6987ZM23.5109 14.9047L22.3958 15.4624C22.3121 15.2951 22.2868 15.1103 22.3093 14.9415C22.3302 14.7848 22.388 14.6674 22.439 14.5908L23.4766 15.2822L24.5142 15.9736C24.7512 15.618 24.9517 14.9981 24.626 14.3469L23.5109 14.9047ZM23.4766 15.2822L22.5188 14.484L19.0866 18.6026L20.0444 19.4009L21.0023 20.1991L24.4344 16.0804L23.4766 15.2822ZM20.0444 19.4009L19.007 18.7091C19.1041 18.5635 19.2434 18.446 19.4041 18.373C19.5542 18.3048 19.6867 18.2913 19.7698 18.2913V19.5381V20.785C20.1601 20.785 20.7182 20.6378 21.0818 20.0926L20.0444 19.4009ZM13.6262 18.8517V20.0985H19.5982V18.8517V17.6048H13.6262V18.8517ZM19.5982 18.8517L20.5576 19.648L23.4064 16.2158L22.447 15.4195L21.4875 14.6232L18.6388 18.0554L19.5982 18.8517ZM22.447 15.4195V14.1727H16.5092V15.4195V16.6663H22.447V15.4195ZM16.5092 15.4195L15.5545 14.6175L12.6714 18.0497L13.6262 18.8517L14.5809 19.6536L17.4639 16.2214L16.5092 15.4195Z" fill="white" mask="url(#path-4-inside-1_520_597)"/>
<mask id="path-6-inside-2_520_597" fill="white">
<path d="M19.7698 21.5977H12.9054C12.7681 21.5977 12.6652 21.529 12.5965 21.3918C12.5278 21.2545 12.5622 21.1172 12.6308 21.0142L14.3469 18.9549C14.4156 18.8862 14.5185 18.8176 14.6215 18.8176H19.5982L21.2113 16.8956C21.28 16.8269 21.383 16.7583 21.4859 16.7583H23.202C23.3393 16.7583 23.4423 16.827 23.5109 16.9642C23.5796 17.1015 23.5452 17.2388 23.4766 17.3418L20.0444 21.4604C19.9758 21.5633 19.8728 21.5977 19.7698 21.5977ZM13.6262 20.9112H19.5982L22.447 17.4791H21.6232L20.0101 19.4011C19.9758 19.504 19.8728 19.5384 19.7699 19.5384H14.7931L13.6262 20.9112Z"/>
</mask>
<path d="M19.7698 21.5977H12.9054C12.7681 21.5977 12.6652 21.529 12.5965 21.3918C12.5278 21.2545 12.5622 21.1172 12.6308 21.0142L14.3469 18.9549C14.4156 18.8862 14.5185 18.8176 14.6215 18.8176H19.5982L21.2113 16.8956C21.28 16.8269 21.383 16.7583 21.4859 16.7583H23.202C23.3393 16.7583 23.4423 16.827 23.5109 16.9642C23.5796 17.1015 23.5452 17.2388 23.4766 17.3418L20.0444 21.4604C19.9758 21.5633 19.8728 21.5977 19.7698 21.5977ZM13.6262 20.9112H19.5982L22.447 17.4791H21.6232L20.0101 19.4011C19.9758 19.504 19.8728 19.5384 19.7699 19.5384H14.7931L13.6262 20.9112Z" fill="white"/>
<path d="M12.6308 21.0142L11.673 20.216L11.6303 20.2673L11.5933 20.3228L12.6308 21.0142ZM14.3469 18.9549L13.4653 18.0732L13.4253 18.1132L13.3891 18.1567L14.3469 18.9549ZM19.5982 18.8176V20.0644H20.1795L20.5532 19.6192L19.5982 18.8176ZM21.2113 16.8956L20.3297 16.0139L20.2912 16.0524L20.2563 16.094L21.2113 16.8956ZM23.4766 17.3418L24.4344 18.14L24.4772 18.0887L24.5142 18.0332L23.4766 17.3418ZM20.0444 21.4604L19.0866 20.6622L19.044 20.7133L19.0072 20.7685L20.0444 21.4604ZM13.6262 20.9112L12.6761 20.1037L10.9299 22.1581H13.6262V20.9112ZM19.5982 20.9112V22.1581H20.1837L20.5576 21.7076L19.5982 20.9112ZM22.447 17.4791L23.4064 18.2754L25.1022 16.2322H22.447V17.4791ZM21.6232 17.4791V16.2322H21.0419L20.6682 16.6775L21.6232 17.4791ZM20.0101 19.4011L19.0551 18.5995L18.9023 18.7815L18.8272 19.0069L20.0101 19.4011ZM14.7931 19.5384V18.2915H14.2165L13.8431 18.7308L14.7931 19.5384ZM19.7698 21.5977V20.3509H12.9054V21.5977V22.8445H19.7698V21.5977ZM12.9054 21.5977V20.3509C13.055 20.3509 13.2415 20.3919 13.4169 20.5088C13.5844 20.6205 13.672 20.7548 13.7116 20.834L12.5965 21.3918L11.4814 21.9495C11.5896 22.166 11.763 22.4033 12.0336 22.5836C12.3119 22.7692 12.6185 22.8445 12.9054 22.8445V21.5977ZM12.5965 21.3918L13.7116 20.834C13.7953 21.0013 13.8206 21.1861 13.7981 21.3549C13.7772 21.5117 13.7194 21.629 13.6684 21.7056L12.6308 21.0142L11.5933 20.3228C11.3562 20.6785 11.1557 21.2983 11.4814 21.9495L12.5965 21.3918ZM12.6308 21.0142L13.5887 21.8124L15.3048 19.7531L14.3469 18.9549L13.3891 18.1567L11.673 20.216L12.6308 21.0142ZM14.3469 18.9549L15.2286 19.8365C15.1952 19.8699 15.1444 19.9136 15.0683 19.9551C14.9969 19.994 14.8415 20.0644 14.6215 20.0644V18.8176V17.5708C14.0211 17.5708 13.615 17.9235 13.4653 18.0732L14.3469 18.9549ZM14.6215 18.8176V20.0644H19.5982V18.8176V17.5708H14.6215V18.8176ZM19.5982 18.8176L20.5532 19.6192L22.1664 17.6971L21.2113 16.8956L20.2563 16.094L18.6432 18.016L19.5982 18.8176ZM21.2113 16.8956L22.093 17.7772C22.0596 17.8106 22.0088 17.8543 21.9327 17.8958C21.8614 17.9347 21.7059 18.0051 21.4859 18.0051V16.7583V15.5115C20.8855 15.5115 20.4794 15.8642 20.3297 16.0139L21.2113 16.8956ZM21.4859 16.7583V18.0051H23.202V16.7583V15.5115H21.4859V16.7583ZM23.202 16.7583V18.0051C23.0524 18.0051 22.8659 17.9641 22.6905 17.8472C22.523 17.7355 22.4354 17.6012 22.3958 17.522L23.5109 16.9642L24.626 16.4065C24.5178 16.19 24.3444 15.9527 24.0738 15.7724C23.7955 15.5868 23.4889 15.5115 23.202 15.5115V16.7583ZM23.5109 16.9642L22.3958 17.522C22.3121 17.3547 22.2868 17.1699 22.3093 17.0011C22.3302 16.8443 22.388 16.727 22.439 16.6504L23.4766 17.3418L24.5142 18.0332C24.7512 17.6775 24.9517 17.0577 24.626 16.4065L23.5109 16.9642ZM23.4766 17.3418L22.5188 16.5436L19.0866 20.6622L20.0444 21.4604L21.0023 22.2586L24.4344 18.14L23.4766 17.3418ZM20.0444 21.4604L19.0072 20.7685C19.1042 20.623 19.2434 20.5056 19.404 20.4326C19.554 20.3644 19.6865 20.3509 19.7698 20.3509V21.5977V22.8445C20.1605 22.8445 20.7182 22.6971 21.0816 22.1523L20.0444 21.4604ZM13.6262 20.9112V22.1581H19.5982V20.9112V19.6644H13.6262V20.9112ZM19.5982 20.9112L20.5576 21.7076L23.4064 18.2754L22.447 17.4791L21.4875 16.6827L18.6388 20.1149L19.5982 20.9112ZM22.447 17.4791V16.2322H21.6232V17.4791V18.7259H22.447V17.4791ZM21.6232 17.4791L20.6682 16.6775L19.0551 18.5995L20.0101 19.4011L20.9651 20.2026L22.5783 18.2806L21.6232 17.4791ZM20.0101 19.4011L18.8272 19.0069C18.9275 18.7058 19.1439 18.5002 19.3582 18.3931C19.5426 18.3009 19.6992 18.2915 19.7699 18.2915V19.5384V20.7852C20.0443 20.7852 20.8968 20.6842 21.193 19.7952L20.0101 19.4011ZM19.7699 19.5384V18.2915H14.7931V19.5384V20.7852H19.7699V19.5384ZM14.7931 19.5384L13.8431 18.7308L12.6761 20.1037L13.6262 20.9112L14.5762 21.7188L15.7431 20.3459L14.7931 19.5384Z" fill="white" mask="url(#path-6-inside-2_520_597)"/>
<mask id="path-8-inside-3_520_597" fill="white">
<path d="M19.7698 23.6568H12.9054C12.7681 23.6568 12.6652 23.5881 12.5965 23.4508C12.5278 23.3136 12.5622 23.1763 12.6308 23.0733L14.3469 21.014C14.4156 20.9453 14.5185 20.8767 14.6215 20.8767H19.5982L21.2113 18.9547C21.28 18.886 21.383 18.8174 21.4859 18.8174H23.202C23.3393 18.8174 23.4423 18.886 23.5109 19.0233C23.5796 19.1606 23.5452 19.2979 23.4766 19.4009L20.0444 23.5195C19.9758 23.6225 19.8728 23.6568 19.7698 23.6568ZM13.6262 22.9704H19.5982L22.447 19.5382H21.6232L20.0101 21.4602C19.9758 21.5632 19.8728 21.5975 19.7699 21.5975H14.7931L13.6262 22.9704Z"/>
</mask>
<path d="M19.7698 23.6568H12.9054C12.7681 23.6568 12.6652 23.5881 12.5965 23.4508C12.5278 23.3136 12.5622 23.1763 12.6308 23.0733L14.3469 21.014C14.4156 20.9453 14.5185 20.8767 14.6215 20.8767H19.5982L21.2113 18.9547C21.28 18.886 21.383 18.8174 21.4859 18.8174H23.202C23.3393 18.8174 23.4423 18.886 23.5109 19.0233C23.5796 19.1606 23.5452 19.2979 23.4766 19.4009L20.0444 23.5195C19.9758 23.6225 19.8728 23.6568 19.7698 23.6568ZM13.6262 22.9704H19.5982L22.447 19.5382H21.6232L20.0101 21.4602C19.9758 21.5632 19.8728 21.5975 19.7699 21.5975H14.7931L13.6262 22.9704Z" fill="white"/>
<path d="M12.6308 23.0733L11.673 22.2751L11.6303 22.3263L11.5933 22.3819L12.6308 23.0733ZM14.3469 21.014L13.4653 20.1323L13.4253 20.1723L13.3891 20.2158L14.3469 21.014ZM19.5982 20.8767V22.1235H20.1795L20.5532 21.6782L19.5982 20.8767ZM21.2113 18.9547L20.3297 18.073L20.2912 18.1115L20.2563 18.1531L21.2113 18.9547ZM23.4766 19.4009L24.4344 20.1991L24.4772 20.1478L24.5142 20.0923L23.4766 19.4009ZM20.0444 23.5195L19.0866 22.7213L19.044 22.7724L19.007 22.8278L20.0444 23.5195ZM13.6262 22.9704L12.6761 22.1629L10.9299 24.2172H13.6262V22.9704ZM19.5982 22.9704V24.2172H20.1837L20.5576 23.7667L19.5982 22.9704ZM22.447 19.5382L23.4064 20.3345L25.1022 18.2913H22.447V19.5382ZM21.6232 19.5382V18.2913H21.0419L20.6682 18.7366L21.6232 19.5382ZM20.0101 21.4602L19.0551 20.6586L18.9023 20.8406L18.8272 21.0661L20.0101 21.4602ZM14.7931 21.5975V20.3506H14.2165L13.8431 20.79L14.7931 21.5975ZM19.7698 23.6568V22.4099H12.9054V23.6568V24.9036H19.7698V23.6568ZM12.9054 23.6568V22.4099C13.055 22.4099 13.2415 22.4509 13.4169 22.5679C13.5844 22.6796 13.672 22.8139 13.7116 22.8931L12.5965 23.4508L11.4814 24.0086C11.5896 24.2251 11.763 24.4623 12.0336 24.6427C12.3119 24.8283 12.6185 24.9036 12.9054 24.9036V23.6568ZM12.5965 23.4508L13.7116 22.8931C13.7953 23.0604 13.8206 23.2452 13.7981 23.414C13.7772 23.5708 13.7194 23.6881 13.6684 23.7647L12.6308 23.0733L11.5933 22.3819C11.3562 22.7376 11.1557 23.3574 11.4814 24.0086L12.5965 23.4508ZM12.6308 23.0733L13.5887 23.8715L15.3048 21.8122L14.3469 21.014L13.3891 20.2158L11.673 22.2751L12.6308 23.0733ZM14.3469 21.014L15.2286 21.8956C15.1952 21.929 15.1444 21.9727 15.0683 22.0142C14.9969 22.0531 14.8415 22.1235 14.6215 22.1235V20.8767V19.6298C14.0211 19.6298 13.615 19.9826 13.4653 20.1323L14.3469 21.014ZM14.6215 20.8767V22.1235H19.5982V20.8767V19.6298H14.6215V20.8767ZM19.5982 20.8767L20.5532 21.6782L22.1664 19.7562L21.2113 18.9547L20.2563 18.1531L18.6432 20.0751L19.5982 20.8767ZM21.2113 18.9547L22.093 19.8363C22.0596 19.8697 22.0088 19.9134 21.9327 19.9549C21.8614 19.9938 21.7059 20.0642 21.4859 20.0642V18.8174V17.5705C20.8855 17.5705 20.4794 17.9233 20.3297 18.073L21.2113 18.9547ZM21.4859 18.8174V20.0642H23.202V18.8174V17.5705H21.4859V18.8174ZM23.202 18.8174V20.0642C23.0524 20.0642 22.8659 20.0232 22.6905 19.9063C22.523 19.7946 22.4354 19.6603 22.3958 19.581L23.5109 19.0233L24.626 18.4656C24.5178 18.2491 24.3444 18.0118 24.0738 17.8315C23.7955 17.6459 23.4889 17.5705 23.202 17.5705V18.8174ZM23.5109 19.0233L22.3958 19.581C22.3121 19.4138 22.2868 19.229 22.3093 19.0602C22.3302 18.9034 22.388 18.7861 22.439 18.7094L23.4766 19.4009L24.5142 20.0923C24.7512 19.7366 24.9517 19.1168 24.626 18.4656L23.5109 19.0233ZM23.4766 19.4009L22.5188 18.6027L19.0866 22.7213L20.0444 23.5195L21.0023 24.3177L24.4344 20.1991L23.4766 19.4009ZM20.0444 23.5195L19.007 22.8278C19.1041 22.6822 19.2434 22.5647 19.4041 22.4916C19.5542 22.4234 19.6867 22.4099 19.7698 22.4099V23.6568V24.9036C20.1601 24.9036 20.7182 24.7564 21.0818 24.2112L20.0444 23.5195ZM13.6262 22.9704V24.2172H19.5982V22.9704V21.7235H13.6262V22.9704ZM19.5982 22.9704L20.5576 23.7667L23.4064 20.3345L22.447 19.5382L21.4875 18.7419L18.6388 22.1741L19.5982 22.9704ZM22.447 19.5382V18.2913H21.6232V19.5382V20.785H22.447V19.5382ZM21.6232 19.5382L20.6682 18.7366L19.0551 20.6586L20.0101 21.4602L20.9651 22.2618L22.5783 20.3397L21.6232 19.5382ZM20.0101 21.4602L18.8272 21.0661C18.9275 20.765 19.1439 20.5593 19.3582 20.4522C19.5426 20.36 19.6992 20.3506 19.7699 20.3506V21.5975V22.8443C20.0443 22.8443 20.8968 22.7433 21.193 21.8543L20.0101 21.4602ZM19.7699 21.5975V20.3506H14.7931V21.5975V22.8443H19.7699V21.5975ZM14.7931 21.5975L13.8431 20.79L12.6761 22.1629L13.6262 22.9704L14.5762 23.7779L15.7431 22.405L14.7931 21.5975Z" fill="white" mask="url(#path-8-inside-3_520_597)"/>
</svg>
