<svg width="36" height="36" viewBox="0 0 36 36" fill="none" xmlns="http://www.w3.org/2000/svg">
<circle cx="17.7795" cy="18.2311" r="17.6613" fill="#B45F92"/>
<path d="M11.9475 10.8409V8.0345C11.9475 7.74389 12.1831 7.5083 12.4737 7.5083H22.692C22.8315 7.5083 22.9653 7.56374 23.064 7.66242L25.8253 10.4237C25.924 10.5223 25.9794 10.6562 25.9794 10.7957V24.522C25.9794 24.8126 25.7438 25.0482 25.4532 25.0482H23.6918" stroke="white" stroke-width="1.31549" stroke-linecap="round" stroke-linejoin="round"/>
<path d="M22.4714 10.4901V7.81836C22.4714 7.64712 22.6103 7.5083 22.7815 7.5083C22.8637 7.5083 22.9426 7.54097 23.0008 7.59911L25.8886 10.487C25.9468 10.5451 25.9794 10.624 25.9794 10.7062C25.9794 10.8775 25.8406 11.0163 25.6693 11.0163H22.9976C22.707 11.0163 22.4714 10.7807 22.4714 10.4901Z" fill="#B45F92" stroke="white" stroke-width="1.31549" stroke-linecap="round" stroke-linejoin="round"/>
<path d="M9.57959 28.021V11.5335C9.57959 11.2429 9.81518 11.0073 10.1058 11.0073H20.3241C20.4636 11.0073 20.5974 11.0628 20.6961 11.1614L23.4574 13.9227C23.5561 14.0214 23.6115 14.1552 23.6115 14.2948V28.021C23.6115 28.3116 23.3759 28.5472 23.0853 28.5472H10.1058C9.81518 28.5472 9.57959 28.3116 9.57959 28.021Z" fill="#B45F92" stroke="white" stroke-width="1.31549" stroke-linecap="round" stroke-linejoin="round"/>
<path d="M20.1035 13.9891V11.3174C20.1035 11.1461 20.2423 11.0073 20.4136 11.0073C20.4958 11.0073 20.5746 11.04 20.6329 11.0981L23.5206 13.986C23.5789 14.0441 23.6115 14.123 23.6115 14.2052C23.6115 14.3765 23.4727 14.5153 23.3014 14.5153H20.6297C20.3391 14.5153 20.1035 14.2797 20.1035 13.9891Z" fill="#B45F92" stroke="white" stroke-width="1.31549" stroke-linecap="round" stroke-linejoin="round"/>
<path d="M13.0876 18.0234H20.1036H13.0876Z" fill="#B45F92"/>
<path d="M13.0876 18.0234H20.1036" stroke="white" stroke-width="1.31549" stroke-linecap="round" stroke-linejoin="round"/>
<path d="M13.0876 25.0391H20.1036H13.0876Z" fill="#B45F92"/>
<path d="M13.0876 25.0391H20.1036" stroke="white" stroke-width="1.31549" stroke-linecap="round" stroke-linejoin="round"/>
<path d="M13.0876 21.5312H16.5956H13.0876Z" fill="#B45F92"/>
<path d="M13.0876 21.5312H16.5956" stroke="white" stroke-width="1.31549" stroke-linecap="round" stroke-linejoin="round"/>
</svg>
