<svg width="36" height="36" viewBox="0 0 36 36" fill="none" xmlns="http://www.w3.org/2000/svg">
<circle cx="17.6613" cy="18.2311" r="17.0305" stroke="#B45F92" stroke-width="1.26152"/>
<path d="M11.8293 10.8409V8.0345C11.8293 7.74389 12.0649 7.5083 12.3555 7.5083H22.5738C22.7134 7.5083 22.8472 7.56374 22.9458 7.66242L25.7071 10.4237C25.8058 10.5223 25.8612 10.6562 25.8612 10.7957V24.522C25.8612 24.8126 25.6257 25.0482 25.335 25.0482H23.5736" stroke="#B45F92" stroke-width="1.31549" stroke-linecap="round" stroke-linejoin="round"/>
<path d="M22.3533 10.4901V7.81836C22.3533 7.64712 22.4921 7.5083 22.6634 7.5083C22.7456 7.5083 22.8244 7.54097 22.8826 7.59911L25.7704 10.487C25.8286 10.5451 25.8612 10.624 25.8612 10.7062C25.8612 10.8775 25.7224 11.0163 25.5511 11.0163H22.8795C22.5888 11.0163 22.3533 10.7807 22.3533 10.4901Z" fill="#B45F92" stroke="#B45F92" stroke-width="1.31549" stroke-linecap="round" stroke-linejoin="round"/>
<path d="M9.46143 28.021V11.5335C9.46143 11.2429 9.69701 11.0073 9.98762 11.0073H20.2059C20.3454 11.0073 20.4793 11.0628 20.5779 11.1614L23.3392 13.9227C23.4379 14.0214 23.4933 14.1552 23.4933 14.2948V28.021C23.4933 28.3116 23.2578 28.5472 22.9671 28.5472H9.98762C9.69701 28.5472 9.46143 28.3116 9.46143 28.021Z" stroke="#B45F92" stroke-width="1.31549" stroke-linecap="round" stroke-linejoin="round"/>
<path d="M19.9854 13.9891V11.3174C19.9854 11.1461 20.1242 11.0073 20.2955 11.0073C20.3776 11.0073 20.4565 11.04 20.5147 11.0981L23.4025 13.986C23.4607 14.0441 23.4933 14.123 23.4933 14.2052C23.4933 14.3765 23.3545 14.5153 23.1832 14.5153H20.5115C20.2209 14.5153 19.9854 14.2797 19.9854 13.9891Z" fill="#B45F92" stroke="#B45F92" stroke-width="1.31549" stroke-linecap="round" stroke-linejoin="round"/>
<path d="M12.9695 18.0234H19.9854" stroke="#B45F92" stroke-width="1.31549" stroke-linecap="round" stroke-linejoin="round"/>
<path d="M12.9695 25.0391H19.9854" stroke="#B45F92" stroke-width="1.31549" stroke-linecap="round" stroke-linejoin="round"/>
<path d="M12.9695 21.5312H16.4775" stroke="#B45F92" stroke-width="1.31549" stroke-linecap="round" stroke-linejoin="round"/>
</svg>
