<svg width="36" height="36" viewBox="0 0 36 36" fill="none" xmlns="http://www.w3.org/2000/svg">
<path d="M20.0982 22.9972L18.2911 21.2053C17.4191 20.3405 16.9831 19.9081 16.4828 19.75C16.0428 19.6111 15.5698 19.6162 15.1329 19.7647C14.636 19.9336 14.2095 20.3752 13.3564 21.2586L9.02677 25.5351M20.0982 22.9972L20.4681 22.6305C21.3411 21.7647 21.7776 21.3318 22.2785 21.1738C22.719 21.0348 23.1923 21.0403 23.6296 21.1894C24.1266 21.3588 24.5531 21.8017 25.406 22.6873L26.3123 23.5995M20.0982 22.9972L24.4436 27.3511M9.02677 25.5351C9.06038 25.8081 9.11763 26.0239 9.21516 26.2153C9.42288 26.6229 9.75433 26.9544 10.162 27.1621C10.6255 27.3983 11.2322 27.3983 12.4457 27.3983H22.8457C23.5545 27.3983 24.0564 27.3983 24.4436 27.3511M9.02677 25.5351C8.979 25.1472 8.979 24.6439 8.979 23.9316V13.5316C8.979 12.3182 8.979 11.7114 9.21516 11.248C9.42288 10.8403 9.75433 10.5088 10.162 10.3011C10.6255 10.0649 11.2322 10.0649 12.4457 10.0649H22.8457C24.0591 10.0649 24.6659 10.0649 25.1293 10.3011C25.537 10.5088 25.8685 10.8403 26.0762 11.248C26.3123 11.7114 26.3123 12.3182 26.3123 13.5316V23.5995M26.3123 23.5995V23.9316C26.3123 25.145 26.3123 25.7518 26.0762 26.2153C25.8685 26.6229 25.537 26.9544 25.1293 27.1621C24.9366 27.2604 24.7191 27.3177 24.4436 27.3511M23.0623 15.4815C23.0623 16.6782 22.0923 17.6482 20.8957 17.6482C19.699 17.6482 18.729 16.6782 18.729 15.4815C18.729 14.2849 19.699 13.3148 20.8957 13.3148C22.0923 13.3148 23.0623 14.2849 23.0623 15.4815Z" stroke="#B45F92" stroke-width="1.5" stroke-linecap="round" stroke-linejoin="round"/>
<circle cx="17.6613" cy="18.2311" r="17.0305" stroke="#B45F92" stroke-width="1.26152"/>
</svg>
