<svg width="36" height="36" viewBox="0 0 36 36" fill="none" xmlns="http://www.w3.org/2000/svg">
<circle cx="17.6613" cy="18.2311" r="17.0305" stroke="#B45F92" stroke-width="1.26152"/>
<path d="M26.5784 17.3033L25.2863 15.8027C25.0393 15.5177 24.8398 14.9859 24.8398 14.606V12.9914C24.8398 11.9846 24.0132 11.1583 23.0062 11.1583H21.3911C21.0206 11.1583 20.479 10.9589 20.194 10.7119L18.6929 9.42027C18.0374 8.85991 16.9638 8.85991 16.2988 9.42027L14.8072 10.7214C14.5221 10.9589 13.9806 11.1583 13.6101 11.1583H11.9665C10.9594 11.1583 10.1329 11.9846 10.1329 12.9914V14.6155C10.1329 14.9859 9.93337 15.5177 9.69585 15.8027L8.41327 17.3128C7.86224 17.9681 7.86224 19.0319 8.41327 19.6872L9.69585 21.1973C9.93337 21.4823 10.1329 22.0141 10.1329 22.3845V24.0086C10.1329 25.0154 10.9594 25.8417 11.9665 25.8417H13.6101C13.9806 25.8417 14.5221 26.0411 14.8072 26.2881L16.3083 27.5797C16.9638 28.1401 18.0374 28.1401 18.7024 27.5797L20.2035 26.2881C20.4885 26.0411 21.0206 25.8417 21.4006 25.8417H23.0157C24.0227 25.8417 24.8493 25.0154 24.8493 24.0086V22.394C24.8493 22.0236 25.0488 21.4823 25.2958 21.1973L26.5879 19.6967C27.1389 19.0414 27.1389 17.9586 26.5784 17.3033ZM21.4481 16.705L16.8593 21.2923C16.7263 21.4253 16.5458 21.5013 16.3558 21.5013C16.1658 21.5013 15.9853 21.4253 15.8523 21.2923L13.5531 18.9939C13.2776 18.7184 13.2776 18.2626 13.5531 17.9871C13.8286 17.7117 14.2846 17.7117 14.5601 17.9871L16.3558 19.7822L20.441 15.6982C20.7166 15.4228 21.1726 15.4228 21.4481 15.6982C21.7236 15.9736 21.7236 16.4295 21.4481 16.705Z" fill="#B45F92"/>
</svg>
