<svg width="36" height="36" viewBox="0 0 36 36" fill="none" xmlns="http://www.w3.org/2000/svg">
<circle cx="17.6613" cy="18.2311" r="17.6613" fill="#B45F92"/>
<path d="M16.5762 9.74902C17.0506 9.34945 17.817 9.32655 18.3174 9.67285L18.4131 9.74707L19.9131 11.0381C20.1064 11.2053 20.3629 11.3387 20.6104 11.4307C20.8581 11.5227 21.1386 11.5888 21.3906 11.5889H23.0059C23.7754 11.5889 24.4091 12.2223 24.4092 12.9912V14.6064C24.4093 14.8626 24.4747 15.1428 24.5674 15.3906C24.6601 15.6386 24.7942 15.8926 24.9609 16.085V16.084L26.251 17.582V17.583C26.6729 18.0763 26.6748 18.9204 26.2617 19.416L24.9707 20.915C24.8031 21.1084 24.6683 21.3654 24.5762 21.6133C24.4841 21.861 24.419 22.1416 24.4189 22.3936V24.0088C24.4189 24.7777 23.7851 25.4111 23.0156 25.4111H21.4004C21.1443 25.4112 20.8642 25.4767 20.6162 25.5693C20.3686 25.6618 20.1151 25.7956 19.9229 25.9619L18.4248 27.251C17.9505 27.6503 17.1849 27.6731 16.6846 27.3271L16.5879 27.2529L15.0879 25.9619C14.8946 25.7947 14.6381 25.6613 14.3906 25.5693C14.1428 25.4773 13.8624 25.4112 13.6104 25.4111H11.9668C11.1973 25.4111 10.5636 24.7777 10.5635 24.0088V22.3848C10.5635 22.1324 10.4978 21.8541 10.4072 21.6094C10.3391 21.4254 10.2487 21.2379 10.1406 21.0752L10.0264 20.9219L10.0234 20.9189L8.74121 19.4082H8.74023C8.32631 18.9133 8.32599 18.0855 8.74023 17.5908L8.74121 17.5918L10.0234 16.0811L10.0264 16.0781C10.1855 15.8872 10.3164 15.6359 10.4072 15.3906C10.4978 15.1459 10.5635 14.8676 10.5635 14.6152V12.9912C10.5636 12.2223 11.1973 11.5889 11.9668 11.5889H13.6104C13.8622 11.5888 14.1421 11.5229 14.3887 11.4326C14.5739 11.3648 14.7634 11.2745 14.9277 11.166L15.083 11.0518L15.0898 11.0459L16.5762 9.74902ZM21.752 15.3936C21.3361 14.9782 20.6706 14.9528 20.2236 15.3164L20.1367 15.3936L16.3555 19.1729L14.8643 17.6826C14.4484 17.2671 13.782 17.2408 13.335 17.6045L13.249 17.6826C12.8331 18.0984 12.807 18.7649 13.1709 19.2119L13.249 19.2979L15.5479 21.5967C15.7606 21.8093 16.0502 21.9316 16.3555 21.9316C16.6227 21.9316 16.8779 21.8378 17.0801 21.6719L17.1631 21.5967L21.752 17.0088C22.1678 16.593 22.1939 15.9275 21.8301 15.4805L21.752 15.3936Z" fill="white" stroke="white" stroke-width="0.860523"/>
</svg>
